External Loads File
version=1
nRows=69
nColumns=13
Range=5.000000e-03-10 seconds
endheader
time 	forceRightX 	forceRightY 	forceRightZ 	pointRightX 	pointRightY 	pointRightZ 	forceLeftX 	forceLeftY 	forceLeftZ 	pointLeftX 	pointLeftY 	pointLeftZ 		
5.005000 196.251125 403.076070 -0.000000 0.288350 0.141753 -0.103495 -46.283802 134.933427 -0.000000 0.296413 0.486626 -0.352909
5.010000 199.068000 373.325763 -0.000000 0.278377 0.141782 -0.103575 -40.216470 163.088022 -0.000000 0.304119 0.487782 -0.353358
5.015000 201.023207 341.619211 -0.000000 0.268594 0.142250 -0.103670 -34.331652 193.406328 -0.000000 0.311497 0.488158 -0.353811
5.020000 202.067455 306.198040 -0.000000 0.259065 0.143482 -0.103422 -29.490902 226.021441 -0.000000 0.318569 0.487650 -0.354499
5.025000 202.001249 265.615893 -0.000000 0.249811 0.145397 -0.103486 -26.552121 260.631000 -0.000000 0.325515 0.486401 -0.355108
5.030000 200.349700 219.057812 -0.000000 0.240962 0.147991 -0.103647 -26.397233 296.518551 -0.000000 0.332456 0.484209 -0.355799
5.035000 196.504404 166.458106 -0.000000 0.232490 0.151163 -0.103876 -29.727227 332.688397 -0.000000 0.339468 0.481122 -0.356680
5.040000 189.817601 108.559416 -0.000000 0.224424 0.154964 -0.104090 -36.742705 367.967295 -0.000000 0.346734 0.477002 -0.357500
5.045000 179.464487 47.327307 -0.000000 0.216846 0.159567 -0.104230 -47.802578 401.026028 -0.000000 0.354015 0.472279 -0.358287
5.050000 165.057210 -14.588309 -0.000000 0.209859 0.164692 -0.104394 -62.841416 430.603327 -0.000000 0.361200 0.466864 -0.359076
5.055000 146.683190 -74.228514 -0.000000 0.203192 0.170184 -0.104708 -81.120107 455.791275 -0.000000 0.368354 0.461104 -0.359708
5.060000 124.913652 -128.513238 -0.000000 0.197177 0.176164 -0.104888 -101.845185 476.161727 -0.000000 0.375454 0.454573 -0.360196
5.065000 100.847083 -174.745566 -0.000000 0.191534 0.182400 -0.104858 -124.211984 491.840839 -0.000000 0.382465 0.447576 -0.360580
5.070000 75.848923 -211.013153 -0.000000 0.186291 0.189238 -0.104945 -147.163157 503.553263 -0.000000 0.389339 0.440115 -0.360713
5.075000 51.472310 -236.233744 -0.000000 0.181380 0.196432 -0.105076 -169.928819 512.364406 -0.000000 0.396151 0.432196 -0.360710
5.080000 29.132604 -250.254931 -0.000000 0.176648 0.204032 -0.105187 -191.726655 519.547111 -0.000000 0.402638 0.423725 -0.360531
5.085000 9.971799 -253.771897 -0.000000 0.172222 0.212079 -0.105331 -211.846161 526.363313 -0.000000 0.408912 0.414774 -0.360472
5.090000 -5.161187 -248.179543 -0.000000 0.168115 0.220482 -0.105370 -229.864105 533.836882 -0.000000 0.414674 0.405242 -0.360326
5.095000 -15.765239 -235.367037 -0.000000 0.164388 0.229105 -0.105436 -245.752946 542.609959 -0.000000 0.420010 0.395455 -0.360142
5.100000 -22.361802 -217.415662 -0.000000 0.161101 0.238372 -0.105554 -258.319636 553.617984 -0.000000 0.424971 0.385345 -0.360053
5.105000 -25.043256 -196.445447 -0.000000 0.158197 0.247687 -0.105570 -268.395420 566.668691 -0.000000 0.429144 0.374908 -0.360132
5.110000 -25.015519 -174.240662 -0.000000 0.155860 0.257539 -0.105672 -274.723421 582.406162 -0.000000 0.432787 0.364064 -0.360269
5.115000 -22.870793 -152.241945 -0.000000 0.154026 0.267677 -0.105848 -278.139139 600.427874 -0.000000 0.435879 0.353126 -0.360397
5.120000 -19.518863 -131.356851 -0.000000 0.152738 0.278131 -0.106074 -278.576769 620.708397 -0.000000 0.438420 0.342062 -0.360136
5.125000 -15.703584 -112.070446 -0.000000 0.152000 0.288771 -0.106325 -276.067744 643.067461 -0.000000 0.440229 0.330753 -0.360366
5.130000 -11.887034 -94.631468 -0.000000 0.151870 0.299559 -0.106678 -271.159813 666.919056 -0.000000 0.441511 0.319521 -0.360354
5.135000 -8.433539 -79.225592 -0.000000 0.152186 0.310346 -0.106923 -263.771709 691.751959 -0.000000 0.442090 0.308270 -0.360245
5.140000 -5.611677 -66.090200 -0.000000 0.153174 0.321323 -0.107260 -252.920495 717.216947 -0.000000 0.442075 0.296919 -0.360196
5.145000 -3.422140 -55.523547 -0.000000 0.154790 0.332279 -0.107570 -239.447307 742.175134 -0.000000 0.441455 0.285765 -0.360552
5.150000 -2.061826 -47.761732 -0.000000 0.157051 0.343280 -0.107878 -222.402566 766.058435 -0.000000 0.440031 0.274654 -0.360237
5.155000 -1.670307 -42.895433 -0.000000 0.159737 0.354229 -0.108190 -202.200282 787.834920 -0.000000 0.437993 0.263636 -0.360254
5.160000 -2.441258 -40.810604 -0.000000 0.162932 0.365153 -0.108498 -179.402189 806.573765 -0.000000 0.435239 0.252969 -0.360184
5.165000 -4.635507 -41.210769 -0.000000 0.166798 0.376172 -0.108734 -153.314117 821.770593 -0.000000 0.431865 0.242445 -0.360167
5.170000 -8.302314 -43.668683 -0.000000 0.171222 0.386599 -0.109272 -126.284344 832.484264 -0.000000 0.427982 0.232113 -0.360261
5.175000 -13.498709 -47.644024 -0.000000 0.176073 0.396826 -0.109718 -98.206788 838.498718 -0.000000 0.423411 0.222226 -0.360122
5.180000 -20.129050 -52.530986 -0.000000 0.181572 0.406719 -0.110109 -69.491543 839.626638 -0.000000 0.418316 0.212735 -0.360031
5.185000 -28.005160 -57.652043 -0.000000 0.187698 0.416203 -0.110419 -40.365353 835.830703 -0.000000 0.412804 0.203408 -0.359923
5.190000 -36.756300 -62.324333 -0.000000 0.194367 0.425203 -0.110675 -12.544769 827.150372 -0.000000 0.406672 0.194959 -0.359712
5.195000 -46.017622 -65.880313 -0.000000 0.200917 0.433737 -0.111134 13.218531 813.860590 -0.000000 0.400108 0.186807 -0.359609
5.200000 -55.564537 -67.628090 -0.000000 0.208166 0.441810 -0.111711 38.156209 796.245853 -0.000000 0.393115 0.178998 -0.359436
5.205000 -65.056508 -67.023314 -0.000000 0.216105 0.449543 -0.112110 62.306460 774.544014 -0.000000 0.385642 0.171708 -0.359318
5.210000 -73.935496 -63.890793 -0.000000 0.223961 0.456482 -0.112214 83.492449 749.245347 -0.000000 0.377737 0.165090 -0.359206
5.215000 -81.989569 -57.934176 -0.000000 0.232229 0.462722 -0.112237 103.392308 720.608781 -0.000000 0.369396 0.158985 -0.359100
5.220000 -88.872410 -49.141824 -0.000000 0.240880 0.468531 -0.112462 122.044897 689.085959 -0.000000 0.360707 0.153556 -0.358993
5.225000 -94.209725 -37.723925 -0.000000 0.249685 0.473532 -0.112527 138.917751 655.398762 -0.000000 0.351627 0.148817 -0.358971
5.230000 -97.751850 -23.849159 -0.000000 0.258816 0.477909 -0.112569 154.668199 620.181056 -0.000000 0.342151 0.144728 -0.358933
5.235000 -99.253900 -7.979385 -0.000000 0.267757 0.481844 -0.112551 168.475611 584.456113 -0.000000 0.332332 0.141439 -0.358742
5.240000 -98.669581 9.440633 -0.000000 0.276758 0.485142 -0.112542 179.859041 549.207891 -0.000000 0.322860 0.138648 -0.360362
5.245000 -96.018827 28.700236 -0.000000 0.285571 0.487875 -0.112585 191.710589 514.029791 -0.000000 0.311743 0.137033 -0.358350
5.250000 -91.675465 49.166179 -0.000000 0.294167 0.489976 -0.112548 200.490877 480.316552 -0.000000 0.301302 0.135779 -0.358149
5.255000 -86.102299 71.374068 -0.000000 0.302574 0.491467 -0.112541 207.432384 447.463522 -0.000000 0.290778 0.135289 -0.358044
5.260000 -80.047493 95.745294 -0.000000 0.310685 0.492231 -0.112661 211.746776 415.249364 -0.000000 0.280675 0.135159 -0.357837
5.265000 -74.167540 123.031754 -0.000000 0.318396 0.492354 -0.112439 213.768719 382.653250 -0.000000 0.270656 0.135776 -0.357724
5.270000 -69.201193 153.835957 -0.000000 0.325826 0.491581 -0.112051 213.441680 348.737428 -0.000000 0.261061 0.137232 -0.357193
5.275000 -65.632412 188.598822 -0.000000 0.332986 0.489556 -0.111558 211.262584 312.356628 -0.000000 0.251606 0.139307 -0.356861
5.280000 -64.348579 227.104536 -0.000000 0.339588 0.487069 -0.110860 206.805309 273.250699 -0.000000 0.242473 0.141931 -0.356620
5.285000 -65.565432 268.733082 -0.000000 0.346051 0.483772 -0.110001 200.592624 230.960897 -0.000000 0.233696 0.145438 -0.356253
5.290000 -69.575220 312.156632 -0.000000 0.352570 0.479710 -0.109268 192.547914 185.914468 -0.000000 0.225281 0.149389 -0.356018
5.295000 -76.703636 355.545501 -0.000000 0.359182 0.474981 -0.108935 182.417854 139.223611 -0.000000 0.217441 0.153818 -0.355831
5.300000 -86.655401 396.988269 -0.000000 0.365800 0.469379 -0.108697 170.212915 92.190776 -0.000000 0.209999 0.158836 -0.355689
5.305000 -99.389111 434.647912 -0.000000 0.372370 0.462969 -0.108191 155.925533 46.605283 -0.000000 0.203101 0.164279 -0.355521
5.310000 -114.267924 467.246067 -0.000000 0.379020 0.455998 -0.107680 139.886169 4.111846 -0.000000 0.196630 0.170236 -0.355303
5.315000 -131.210564 493.950549 -0.000000 0.385504 0.448454 -0.107381 122.603224 -33.591662 -0.000000 0.190718 0.176659 -0.355060
5.320000 -149.095995 514.801872 -0.000000 0.391991 0.440342 -0.107089 104.761077 -65.415231 -0.000000 0.185116 0.183514 -0.354836
5.325000 -166.993161 530.380505 -0.000000 0.398568 0.431785 -0.107326 87.081749 -90.571049 -0.000000 0.179806 0.190914 -0.354771
5.330000 -184.803194 541.435206 -0.000000 0.404507 0.422524 -0.106992 70.447400 -108.643907 -0.000000 0.174822 0.198746 -0.354836
5.335000 -202.184771 549.032133 -0.000000 0.410185 0.413218 -0.106505 55.621734 -119.836349 -0.000000 0.170328 0.206987 -0.354758
5.340000 -218.259713 554.592463 -0.000000 0.415523 0.403601 -0.106739 43.010226 -124.832486 -0.000000 0.166266 0.215546 -0.354678
5.345000 -232.747357 559.383088 -0.000000 0.420281 0.393612 -0.106527 32.892407 -124.566180 -0.000000 0.162686 0.224414 -0.354594
